:SAMPLES-PER-SECOND 30
:FULLY-SPECIFIED
:DEGREES
2246
root  -44.4652 38.9725 1.69057 109.543 -81.231 -111.655
RightUpLeg  -9.08854 -1.33727 10.2128
RightLeg  23.4895 -5.23523 -2.70387
RightFoot  -11.9014 -0.0887043 -1.63654
RightToes  7.56698e-010 0 -3.6325e-017
Spine  4.89556 0.0617543 22.0138
Spine1  2.23466 0.252658 0.709107
HEad  -56.2482 -0.893358 -1.52324
LeftShoulder1  1.3009 -0.238327 -28.6595
LeftArm  -6.53016 12.2555 -43.6801
LeftForeArm  27.6819 -3.19411 -7.37266
LeftHand  -0.0855903 8.61782 -1.24922
RightShoulder  0.00701693 -3.45468 25.146
RightArm  5.37015 2.76112 39.2974
RightForeArm  -15.2329 10.4938 5.1197
RightHand  -0.600478 5.55116 -6.67573
LeftUpLeg  -28.9891 21.2344 13.4564
LeftLeg  34.5193 -2.40253 -1.40601
LeftFoot  -4.58885 0.781089 -12.715
LeftToes  -2.88401e-009 5.30678e-011 -1.08654e-010
2247
root  -43.6751 39.1897 1.75168 109.297 -81.5202 -110.308
RightUpLeg  -9.99227 -0.997929 9.84171
RightLeg  20.3515 -5.53332 -2.31479
RightFoot  -10.3816 -0.0662765 -0.469063
RightToes  7.56698e-010 0 -3.6325e-017
Spine  3.18069 0.646429 22.3758
Spine1  1.27046 0.638123 0.264081
HEad  -54.0182 -0.585567 -1.50507
LeftShoulder1  1.2374 -0.0607345 -28.619
LeftArm  -6.53195 9.81434 -43.1495
LeftForeArm  26.003 -5.01899 -7.43612
LeftHand  -0.0566904 7.96041 -0.567552
RightShoulder  0.0491592 -3.31834 24.7258
RightArm  7.53251 2.07519 39.2662
RightForeArm  -13.9782 11.1407 5.63939
RightHand  -0.610679 5.46264 -6.83149
LeftUpLeg  -27.9616 19.3048 14.503
LeftLeg  41.2128 -1.83648 -1.35846
LeftFoot  -5.86711 0.556519 -10.8832
LeftToes  -2.88401e-009 5.30678e-011 -1.08654e-010
2248
root  -42.8638 39.2539 1.72907 110.834 -80.8922 -110.722
RightUpLeg  -11.1289 0.317096 10.3698
RightLeg  17.7415 -6.27208 -2.10378
RightFoot  -9.82735 -0.0850379 1.46277
RightToes  7.56698e-010 0 -3.6325e-017
Spine  1.40054 1.31291 23.2771
Spine1  0.960016 1.16152 -0.544833
HEad  -52.1444 -0.416263 -1.47932
LeftShoulder1  1.17394 0.107766 -28.4835
LeftArm  -6.62345 7.14913 -42.9162
LeftForeArm  25.3806 -7.01853 -7.37906
LeftHand  -0.0738511 8.2069 -1.14404
RightShoulder  0.0834253 -3.20534 24.3983
RightArm  9.65132 1.97614 39.4953
RightForeArm  -11.8237 11.8485 6.01593
RightHand  -0.528176 5.06457 -6.15794
LeftUpLeg  -26.561 19.2286 16.3265
LeftLeg  47.7921 -2.31447 -2.32369
LeftFoot  -7.15048 0.405805 -9.96733
LeftToes  -2.88401e-009 5.30678e-011 -1.08654e-010
2249
root  -42.0123 39.17 1.67186 111.456 -79.5516 -110.166
RightUpLeg  -12.9321 1.65359 11.678
RightLeg  16.2774 -7.14096 -2.00186
RightFoot  -9.53132 -0.118177 3.35622
RightToes  7.56698e-010 0 -3.6325e-017
Spine  0.0441807 1.87781 24.1931
Spine1  0.497252 1.49156 -0.640653
HEad  -50.7219 -0.594851 -1.38631
LeftShoulder1  1.03689 0.541455 -28.9006
LeftArm  -4.70185 4.3706 -42.2193
LeftForeArm  23.1518 -9.6539 -7.79553
LeftHand  -0.0691736 8.76782 -0.68805
RightShoulder  0.0812355 -3.21227 24.3845
RightArm  11.1701 2.13111 39.5417
RightForeArm  -10.4831 12.8872 6.11789
RightHand  -0.488433 5.0089 -5.74846
LeftUpLeg  -24.7005 19.5458 18.9443
LeftLeg  53.5086 -2.83986 -3.62961
LeftFoot  -8.59985 0.293678 -10.0567
LeftToes  -2.88401e-009 5.30678e-011 -1.08654e-010
2250
root  -41.1489 39.0369 1.57793 112.063 -77.9915 -109.611
RightUpLeg  -14.8949 3.24576 13.2296
RightLeg  15.0076 -8.20415 -1.94432
RightFoot  -8.62204 -0.162031 4.36627
RightToes  7.56698e-010 0 -3.6325e-017
Spine  -1.68706 2.37727 24.8257
Spine1  0.779878 1.62208 -0.574277
HEad  -51.1009 -0.26755 -1.05864
LeftShoulder1  1.05938 0.450592 -28.5973
LeftArm  -2.98428 2.18889 -42.6489
LeftForeArm  21.0605 -12.3186 -7.31272
LeftHand  -0.0674769 8.79931 -0.553859
RightShoulder  0.0816775 -3.21153 24.4716
RightArm  12.1268 2.64558 39.8432
RightForeArm  -10.6152 13.4581 6.2214
RightHand  -0.531542 5.59025 -5.93082
LeftUpLeg  -21.9547 20.1709 21.7178
LeftLeg  57.4033 -3.09261 -4.68814
LeftFoot  -9.34613 0.212137 -8.97234
LeftToes  -2.88401e-009 5.30678e-011 -1.08654e-010
2251
root  -40.2902 38.8645 1.47129 111.374 -76.4034 -107.583
RightUpLeg  -17.2068 4.54909 14.869
RightLeg  13.9653 -9.27131 -1.8602
RightFoot  -7.21604 -0.215723 4.63618
RightToes  7.56698e-010 0 -3.6325e-017
Spine  -3.80897 2.73012 24.9058
Spine1  1.11356 1.36232 0.13154
HEad  -49.5045 0.756558 -1.41112
LeftShoulder1  1.09138 0.350786 -28.5117
LeftArm  -0.502419 0.334879 -43.2961
LeftForeArm  17.8032 -15.0016 -6.6205
LeftHand  -0.0284955 8.25979 0.609367
RightShoulder  0.120666 -3.08103 24.1929
RightArm  11.6701 2.92477 40.4746
RightForeArm  -9.86422 13.7062 6.03533
RightHand  -0.543843 5.427 -6.14169
LeftUpLeg  -18.8489 20.264 24.4306
LeftLeg  59.3601 -4.08774 -6.86982
LeftFoot  -10.1248 0.156678 -9.11203
LeftToes  -2.88401e-009 5.30678e-011 -1.08654e-010
2252
root  -39.4215 38.6973 1.37544 109.559 -75.2177 -104.515
RightUpLeg  -19.4811 5.19529 16.1163
RightLeg  13.0136 -9.88867 -1.67766
RightFoot  -5.65258 -0.274902 4.75082
RightToes  7.56698e-010 0 -3.6325e-017
Spine  -5.906 2.68273 24.5741
Spine1  1.46799 0.724598 0.751943
HEad  -48.6459 1.38994 -1.539
LeftShoulder1  1.07473 0.376605 -28.263
LeftArm  2.43266 -1.49818 -43.9743
LeftForeArm  14.8494 -17.463 -5.88292
LeftHand  -0.0354089 8.64169 0.492378
RightShoulder  0.130951 -3.04089 23.6925
RightArm  10.514 2.97348 41.6351
RightForeArm  -9.73414 14.0462 5.73395
RightHand  -0.57242 6.0638 -6.11983
LeftUpLeg  -15.4586 19.7692 26.3584
LeftLeg  59.2942 -6.07176 -10.362
LeftFoot  -10.3665 0.152623 -10.5625
LeftToes  -2.88401e-009 5.30678e-011 -1.08654e-010
2253
root  -38.5688 38.5282 1.3401 106.558 -74.7116 -100.549
RightUpLeg  -21.5994 4.6655 16.7083
RightLeg  12.3286 -10.1171 -1.36329
RightFoot  -4.64661 -0.333862 5.16147
RightToes  7.56698e-010 0 -3.6325e-017
Spine  -7.90022 2.13914 23.7748
Spine1  1.93825 -0.193446 0.67547
HEad  -47.5808 1.37966 -1.17634
LeftShoulder1  1.07031 0.268989 -26.9448
LeftArm  4.02773 -2.5993 -45.4401
LeftForeArm  13.1565 -19.9263 -4.95466
LeftHand  -0.0080684 7.29236 1.71095
RightShoulder  0.066629 -3.25874 24.3001
RightArm  9.48462 3.22638 42.241
RightForeArm  -9.76811 14.4822 5.45868
RightHand  -0.555934 5.7051 -6.12937
LeftUpLeg  -12.1179 19.1347 27.0635
LeftLeg  57.8254 -8.90655 -14.3788
LeftFoot  -9.95477 0.21094 -12.3842
LeftToes  -2.88401e-009 5.30678e-011 -1.08654e-010
2254
root  -37.6813 38.3433 1.32496 103.664 -74.1356 -96.452
RightUpLeg  -23.9912 4.46449 17.1734
RightLeg  11.5636 -10.7281 -1.11977
RightFoot  -3.62731 -0.393848 5.47625
RightToes  7.56698e-010 0 -3.6325e-017
Spine  -9.91429 1.63435 22.7315
Spine1  2.28078 -1.10957 1.21376
HEad  -47.5509 1.57213 -0.827077
LeftShoulder1  1.07493 0.230952 -26.7092
LeftArm  5.424 -3.67999 -46.0075
LeftForeArm  12.992 -22.6278 -4.36967
LeftHand  -0.0145928 7.05682 1.52463
RightShoulder  0.0350953 -3.3645 24.9455
RightArm  9.08791 3.23044 42.2844
RightForeArm  -10.1502 14.8547 5.34547
RightHand  -0.557926 5.50201 -6.25578
LeftUpLeg  -9.42486 19.2616 27.4144
LeftLeg  55.0564 -12.1884 -17.5707
LeftFoot  -9.4674 0.284715 -14.2858
LeftToes  -2.88401e-009 5.30678e-011 -1.08654e-010
2255
root  -36.735 38.1951 1.3288 100.358 -73.7056 -91.8793
RightUpLeg  -26.2652 4.4959 17.1497
RightLeg  10.1719 -11.9132 -0.66892
RightFoot  -2.43574 -0.458283 5.65922
RightToes  7.56698e-010 0 -3.6325e-017
Spine  -11.3798 1.15593 21.3192
Spine1  2.05412 -1.88981 2.37684
HEad  -46.78 0.988578 -1.11812
LeftShoulder1  1.05329 0.416125 -27.9923
LeftArm  5.68251 -4.88385 -45.6531
LeftForeArm  14.3803 -25.306 -4.63628
LeftHand  -0.0182267 6.94697 1.4564
RightShoulder  0.0711535 -3.24601 24.4789
RightArm  8.20097 2.04441 42.7601
RightForeArm  -9.95059 15.5155 5.07665
RightHand  -0.575868 6.3794 -6.00379
LeftUpLeg  -7.56328 19.8466 27.2409
LeftLeg  51.1738 -15.4599 -19.1879
LeftFoot  -11.1596 0.108564 -14.8793
LeftToes  -2.88401e-009 5.30678e-011 -1.08654e-010
2256
root  -35.7632 38.1506 1.31819 96.4557 -74.046 -86.9857
RightUpLeg  -27.5254 4.38462 15.9329
RightLeg  7.21718 -13.4519 0.446954
RightFoot  -1.20836 -0.563197 6.25337
RightToes  7.56698e-010 0 -3.6325e-017
Spine  -12.4904 0.38238 19.2008
Spine1  1.92202 -2.48594 2.18618
HEad  -47.2379 0.637892 -1.0974
LeftShoulder1  1.05887 0.365584 -27.6164
LeftArm  4.87642 -5.5651 -46.1335
LeftForeArm  16.4414 -28.2761 -5.21823
LeftHand  -0.032872 7.2357 0.334794
RightShoulder  0.0790108 -3.22107 24.5817
RightArm  7.50147 1.14121 43.3877
RightForeArm  -9.42152 15.7721 4.91039
RightHand  -0.560152 6.23814 -5.91851
LeftUpLeg  -6.46816 20.6971 25.7802
LeftLeg  46.1351 -17.817 -18.4758
LeftFoot  -17.0774 -0.344255 -9.31994
LeftToes  -2.88401e-009 5.30678e-011 -1.08654e-010
2257
root  -34.66 38.1045 1.37393 91.0701 -74.7327 -81.0076
RightUpLeg  -28.4162 4.94691 13.6293
RightLeg  3.90238 -16.5152 1.71213
RightFoot  -0.0537078 -0.661081 6.67746
RightToes  7.56698e-010 0 -3.6325e-017
Spine  -12.7213 -0.485177 16.8638
Spine1  1.8375 -2.85575 1.74236
HEad  -47.6377 -0.273794 -1.11792
LeftShoulder1  1.05414 0.36998 -27.5136
LeftArm  4.49489 -6.18905 -46.7146
LeftForeArm  18.4511 -31.0379 -5.76033
LeftHand  -0.0293222 5.75253 0.563145
RightShoulder  0.0708086 -3.24841 24.7439
RightArm  8.12765 0.407908 43.6031
RightForeArm  -9.51948 16.0033 4.99394
RightHand  -0.541221 5.4246 -6.11081
LeftUpLeg  -6.12057 21.7573 23.508
LeftLeg  40.6061 -18.5508 -15.9482
LeftFoot  -22.4655 -0.16422 -2.87718
LeftToes  -2.88401e-009 5.30678e-011 -1.08654e-010
2258
root  -33.3922 38.0121 1.43916 84.7279 -75.6424 -74.5838
RightUpLeg  -29.1405 5.39595 10.9873
RightLeg  0.889601 -19.4591 2.87294
RightFoot  0.635416 -0.731502 7.00988
RightToes  7.56698e-010 0 -3.6325e-017
Spine  -11.9724 -1.30529 14.712
Spine1  2.07854 -2.83662 0.445227
HEad  -49.0807 -0.748358 -1.07597
LeftShoulder1  1.05048 0.345472 -27.1206
LeftArm  4.17826 -6.84801 -47.3006
LeftForeArm  20.3593 -33.5313 -6.27464
LeftHand  -0.0284696 5.14811 0.247912
RightShoulder  0.0246855 -3.39913 25.2137
RightArm  8.73028 0.399391 44.1246
RightForeArm  -8.8953 15.1106 5.17215
RightHand  -0.485026 4.87616 -5.78351
LeftUpLeg  -7.04083 22.6036 20.7003
LeftLeg  37.1022 -16.5621 -12.6574
LeftFoot  -26.6241 0.075221 -0.60065
LeftToes  -2.88401e-009 5.30678e-011 -1.08654e-010
